# xmcd
#
# Track frame offsets: 
#        150
#        4924
#        11851
#        43005
#        67299
#        89967
#        113920
#        124267
#        128082
#        142396
#        152404
#        162403
#        173624
#        185181
#        196282
#        204062
#        232868
#        259507
#        279596
#        318358
#
# Disc length: 4553 seconds
#
# Revision: 1
# Processed by: cddbd v1.5.2PL0 Copyright (c) Steve Scherf et al.
# Submitted via: ExactAudioCopy v1.3
#
DISCID=2611c714
DTITLE=Various Artist - バジリスク -甲賀忍法帖- 音絵巻 -第一章-
DYEAR=2005
DGENRE=Anime
TTITLE0=中川孝 - 宿怨
TTITLE1=陰陽座 - 甲賀忍法帖 (TVサイズ)
TTITLE2=中川孝 - 忍法御上覧
TTITLE3=中川孝 - 悲絆 -きずな-
TTITLE4=中川孝 - 春夢
TTITLE5=中川孝 - 殲 其ノ弐
TTITLE6=中川孝 - 月下終焉
TTITLE7=中川孝 - 和睦之舞
TTITLE8=中川孝 - 殲 其ノ惨
TTITLE9=中川孝 - デッドヒート
TTITLE10=中川孝 - 変幻
TTITLE11=中川孝 - 寂滅
TTITLE12=中川孝 - 胡蝶の涙
TTITLE13=中川孝 - 哀別、鮮血の檻にて
TTITLE14=中川孝 - 殲 其ノ壱
TTITLE15=山田風太郎 - 春嵐前夜 其の壱
TTITLE16=小林清志 - 春嵐前夜 其の弐
TTITLE17=山田風太郎 - 春嵐前夜 其の参
TTITLE18=山田風太郎 - 春嵐前夜 其の肆
TTITLE19=山田風太郎 - 私立バジリスク学園!
EXTD=YEAR: 20050622
EXTT0=
EXTT1=
EXTT2=
EXTT3=
EXTT4=
EXTT5=
EXTT6=
EXTT7=
EXTT8=
EXTT9=
EXTT10=
EXTT11=
EXTT12=
EXTT13=
EXTT14=
EXTT15=
EXTT16=
EXTT17=
EXTT18=
EXTT19=
PLAYORDER=
